<svg width="96" height="97" viewBox="0 0 96 97" fill="none" xmlns="http://www.w3.org/2000/svg">
<rect y="0.400024" width="96" height="96" rx="48" fill="white"/>
<path d="M39.3402 23.3172L36.115 31.1827L26.1719 21.2395C30.429 19.0608 35.7764 19.7534 39.3402 23.3172Z" fill="#4BB3A4"/>
<path d="M31.3281 31.3259L43.2158 47.8539L50.4647 40.605L42.5708 32.7111C42.9815 29.3693 41.9034 25.8813 39.3381 23.316L31.3281 31.3259Z" fill="#60D9CE"/>
<path d="M31.3272 31.3273L45.5351 45.5352L40.6056 50.4648L32.7117 42.5708C29.3706 42.9808 25.8826 41.9027 23.3174 39.3373C19.7535 35.7734 19.0614 30.427 21.24 26.1696L28.8624 33.792L31.3272 31.3273Z" fill="#4BB3A4"/>
<path d="M56.6641 72.6815L59.8893 64.816L69.8324 74.7592C65.5751 76.9379 60.2279 76.2453 56.6641 72.6815Z" fill="#60D9CE"/>
<path d="M64.6679 64.6722L52.7802 48.1442L45.5312 55.3931L53.4251 63.287C53.0144 66.6288 54.0925 70.1168 56.6579 72.6821L64.6679 64.6722Z" fill="#4BB3A4"/>
<path d="M64.6766 64.6723L50.4688 50.4644L55.3983 45.5348L63.2922 53.4287C66.6332 53.0188 70.1212 54.0969 72.6865 56.6622C76.2502 60.2259 76.9424 65.5724 74.7638 69.8299L67.1414 62.2074L64.6766 64.6723Z" fill="#60D9CE"/>
<path d="M73.2434 22.7574L74.4757 23.9898C76.5089 26.023 76.5089 29.3502 74.4757 31.3835L71.4837 34.3755L63.4609 29.4464L73.2434 22.7574Z" fill="#FF6126"/>
<path d="M72.0107 21.5247L73.243 22.757L65.0074 30.9927L61.625 24.5167L64.617 21.5247C66.6503 19.4913 69.9775 19.4913 72.0107 21.5247Z" fill="#FF8151"/>
<path d="M66.5539 29.4469L71.4831 34.3761L66.5539 39.3053L58.5312 34.3761L66.5539 29.4469Z" fill="#A3FDF6"/>
<path d="M61.6244 24.5172L66.5537 29.4464L60.0777 35.9223L56.6953 29.4464L61.6244 24.5172Z" fill="#DBFFFA"/>
<path d="M24.5232 69.9293L25.6059 74.1056L20.6562 75.3431L24.5232 69.9293Z" fill="#000E0F"/>
<path d="M21.8937 70.3922L23.7499 72.2483L20.6562 75.3419L21.8937 70.3922Z" fill="#116371"/>
<path d="M29.6454 64.8063L33.8008 72.0553L25.6061 74.1048L23.75 72.2486L29.6454 64.8063Z" fill="#FFA07D"/>
<path d="M23.9393 62.1969L28.8688 67.1265L23.7468 72.2485L21.8906 70.3925L23.9393 62.1969Z" fill="#FFC0A8"/>
<path d="M61.626 34.3746L66.5552 39.3039L33.8042 72.0549L28.875 67.1257L42.9303 48.4301L61.626 34.3746Z" fill="#FFD15E"/>
<path d="M61.6244 34.376L56.6953 29.4469L23.9446 62.1976L28.8737 67.1267L61.6244 34.376Z" fill="#FFEA7C"/>
</svg>
