<svg width="96" height="97" viewBox="0 0 96 97" fill="none" xmlns="http://www.w3.org/2000/svg">
<rect y="0.400024" width="96" height="96" rx="48" fill="white"/>
<path d="M23.9603 53.8634C21.7822 53.8634 20.2578 52.502 20.2578 50.324L20.3277 37.9125C20.3277 36.5725 20.6675 35.4196 21.6889 34.7069C22.3278 34.2612 23.1048 33.9996 23.9431 33.9996H72.0566C74.2347 33.9996 76.0003 35.7653 76.0003 37.9434V50.3379C76.0003 51.2322 75.7027 52.0569 75.2011 52.7185C74.481 53.6683 73.3766 53.9334 72.0928 53.9334C68.4753 53.9333 23.9603 53.8634 23.9603 53.8634Z" fill="#EE6161"/>
<path d="M75.2934 52.5929C74.5812 53.6149 73.397 54.283 72.0573 54.283H23.9437C21.7657 54.283 20 52.5174 20 50.3393V37.9447C20 36.605 20.6682 35.4207 21.6902 34.7086V50.3393C21.6902 51.581 22.7009 52.5929 23.9437 52.5929H75.2934Z" fill="#E94444"/>
<path d="M62.357 62.617C62.357 62.617 60.6177 62.6304 60.3026 63.4651V62.7401C60.3026 61.4806 57.8809 61.0963 57.8809 61.0963C57.8809 61.0963 55.7023 61.4806 55.7023 62.7401C55.7016 62.13 55.7007 61.9958 55.6999 61.3856C55.6999 60.1261 53.5237 59.8353 53.5237 59.8353C53.5237 59.8353 51.4456 59.8179 51.1802 60.7869V59.8353V53.4256C51.1802 52.1661 48.8801 51.4508 48.8801 51.4508C48.8801 51.4508 46.9816 52.314 46.9816 53.5735L46.5799 61.8508L45.5293 62.2504C43.9653 62.2504 42.8107 63.0889 42.8107 64.6656L42.7734 67.7893C42.7734 70.22 43.8203 72.4031 45.7676 73.8363L46.2182 74.1679C47.2297 74.9328 48.0729 75.9318 48.1792 77.1933C48.1937 77.3664 48.3349 77.501 48.5085 77.501L61.394 77.4451C61.5768 77.4451 61.7249 77.297 61.7249 77.1142C61.7249 76.6339 62.2521 76.5504 62.3568 76.0873C62.5422 75.2668 62.8878 74.4865 63.3783 73.794C64.1458 72.7105 64.5583 71.4124 64.5583 70.0811V64.2515C64.5582 63.0286 62.357 62.617 62.357 62.617Z" fill="#F1D0A5"/>
<path d="M49.6954 76.0872C49.5157 76.0872 49.3534 75.9778 49.2892 75.8099C48.8679 74.7069 48.1113 73.7057 47.0973 72.9395L46.6291 72.5938C45.134 71.4941 44.2428 69.7232 44.2428 67.8548V64.7025C44.2428 64.1067 44.7164 63.6039 45.3122 63.6015H45.3236H46.5838L47.3076 62.9091L46.5838 61.8512H45.3236C45.0992 61.8512 44.8819 61.8803 44.6725 61.9301C44.6737 61.9292 44.6747 61.928 44.676 61.927C43.4174 62.2113 42.4765 63.4174 42.4924 64.7057V66.456V67.8548C42.4924 70.2863 43.6433 72.5705 45.5905 74.0043L46.0412 74.3355C47.0534 75.1012 47.8017 76.268 47.9081 77.5297C47.9228 77.7029 48.064 77.8375 48.2378 77.8375H61.8701C62.0539 77.8375 62.2012 77.6888 62.2012 77.5063C62.2012 77.025 62.2552 76.5495 62.3602 76.0872H49.6954Z" fill="#F2BB88"/>
<path d="M51.185 53.424V54.445C51.185 53.8476 50.9531 53.3039 50.5737 52.8973C49.9704 52.2509 48.8848 52.6862 48.8848 53.5703V67.73C48.8848 68.3649 48.3702 68.8795 47.7354 68.8795C47.1005 68.8795 46.5859 68.3649 46.5859 67.73V53.424C46.5859 52.1651 47.6157 51.1442 48.8847 51.1442C50.1552 51.1442 51.185 52.1653 51.185 53.424Z" fill="#F2BB88"/>
<path d="M55.7047 62.4055C55.7047 61.8834 55.5278 61.4021 55.2302 61.0175C54.6656 60.2881 53.4906 60.7094 53.4906 61.6319V64.8103C53.4906 65.3293 53.0699 65.75 52.5509 65.75H52.1194C51.6 65.75 51.1791 65.3286 51.1797 64.8093L51.1844 60.785C51.4499 59.8165 52.3425 59.1031 53.4044 59.1031C53.4336 59.1031 53.4628 59.1031 53.4905 59.1046C54.7216 59.1498 55.7046 60.1533 55.7046 61.3844C55.7062 61.9941 55.7062 63.0152 55.7047 62.4055Z" fill="#F2BB88"/>
<path d="M60.3056 62.7389V63.7599C60.3056 63.1626 60.0737 62.6188 59.6943 62.2123C59.0911 61.5658 58.0054 62.0011 58.0054 62.8853V64.8301C58.0054 65.3491 57.5847 65.7699 57.0657 65.7699H56.6507C56.1317 65.7699 55.7109 65.3491 55.7109 64.8301V62.5813C55.7712 61.4098 56.8363 60.4366 58.0053 60.459C59.2757 60.4591 60.3056 61.4801 60.3056 62.7389Z" fill="#F2BB88"/>
<path d="M64.5594 64.2499V65.2709C64.5594 64.4982 63.9641 63.8174 63.2379 63.4216C62.7549 63.1583 62.1659 63.5161 62.1659 64.0661V64.8391C62.1659 65.353 61.7492 65.7697 61.2353 65.7697C60.7214 65.7697 60.3047 65.353 60.3047 64.8391V63.4637C60.6391 62.5541 61.5961 61.9271 62.6034 62.0502C63.7032 62.1714 64.5594 63.1107 64.5594 64.2499Z" fill="#F2BB88"/>
<path d="M62.4558 47.0504V41.2649C62.4558 40.8022 62.0993 40.3987 61.6367 40.3848C61.1582 40.3704 60.7656 40.7542 60.7656 41.2295V47.015C60.7656 47.4778 61.1221 47.8813 61.5847 47.8951C62.0632 47.9094 62.4558 47.5258 62.4558 47.0504Z" fill="#F9F8F9"/>
<path d="M73.1269 42.1C73.6023 42.1 73.9859 41.7075 73.9716 41.2288C73.9578 40.7663 73.5543 40.4098 73.0915 40.4098H70.6966C70.2299 40.4098 69.8516 40.7882 69.8516 41.2549V47.0226C69.8516 47.4894 70.2299 47.8677 70.6966 47.8677H73.0915C73.5543 47.8677 73.9578 47.5112 73.9716 47.0487C73.9861 46.5701 73.6023 46.1776 73.1269 46.1776H71.5417V44.9838H72.9123C73.3751 44.9838 73.7786 44.6273 73.7925 44.1648C73.8069 43.6862 73.4231 43.2937 72.9477 43.2937H71.5417V42.1H73.1269Z" fill="#F9F8F9"/>
<path d="M37.7564 40.3844H36.1185C35.6518 40.3844 35.2734 40.7628 35.2734 41.2295V43.9099V43.9143V47.0304C35.2734 47.1482 35.2915 47.2669 35.3377 47.3753C35.4763 47.7013 35.7875 47.8955 36.1185 47.8955H36.1222C36.1222 47.8955 37.6763 47.8885 38.1046 47.8885C39.4345 47.8885 40.5165 46.8066 40.5165 45.4767C40.5165 44.756 40.197 44.1099 39.6944 43.6675C39.9164 43.288 40.0298 42.8376 39.9836 42.3573C39.8749 41.2281 38.8907 40.3844 37.7564 40.3844ZM37.7874 42.0746C38.0454 42.0746 38.2762 42.2627 38.3013 42.5195C38.3301 42.8142 38.0983 43.0632 37.8095 43.0632C37.7205 43.0629 37.3952 43.0648 36.9637 43.0648V42.0746H37.7874ZM38.1046 46.1984C37.8921 46.1984 37.4034 46.2001 36.9636 46.2017V44.7557C36.9727 44.7547 38.0291 44.7548 38.1046 44.7548C38.5026 44.7548 38.8263 45.0787 38.8263 45.4765C38.8263 45.8744 38.5026 46.1984 38.1046 46.1984Z" fill="#F9F8F9"/>
<path d="M66.1314 40.3844H64.4935C64.0268 40.3844 63.6484 40.7628 63.6484 41.2295V47.0303C63.6484 47.1481 63.6665 47.2668 63.7127 47.3752C63.8513 47.7011 64.1625 47.8954 64.4935 47.8954H64.4972C64.4972 47.8954 66.0513 47.8884 66.4796 47.8884C67.8095 47.8884 68.8915 46.8065 68.8915 45.4765C68.8915 44.7559 68.572 44.1098 68.0692 43.6674C68.2913 43.2879 68.4047 42.8374 68.3585 42.3572C68.2499 41.2281 67.2657 40.3844 66.1314 40.3844ZM66.1624 42.0746C66.4204 42.0746 66.6512 42.2627 66.6763 42.5195C66.7051 42.8142 66.4733 43.0632 66.1845 43.0632C66.0955 43.0629 65.7702 43.0648 65.3387 43.0648V42.0746H66.1624ZM66.4796 46.1984C66.2671 46.1984 65.7784 46.2001 65.3386 46.2017V44.7557C65.3477 44.7547 66.4041 44.7548 66.4796 44.7548C66.8776 44.7548 67.2013 45.0787 67.2013 45.4765C67.2013 45.8744 66.8776 46.1984 66.4796 46.1984Z" fill="#F9F8F9"/>
<path d="M50.9495 42.108C51.4867 42.0126 52.0205 42.1238 52.4604 42.4138C52.8363 42.6616 53.3534 42.5972 53.6255 42.2386C53.9213 41.8488 53.8261 41.2965 53.4262 41.0263C52.7217 40.5503 51.8827 40.3287 51.0234 40.3963C49.1022 40.5474 47.5914 42.1714 47.5705 44.0986C47.5479 46.1883 49.2412 47.8955 51.3259 47.8955C52.222 47.8769 53.1639 47.5484 53.8068 46.772C54.1068 46.4144 54.0601 45.8814 53.7026 45.5814C53.3449 45.2814 52.812 45.328 52.512 45.6856C52.2728 45.9602 51.9339 46.1734 51.3259 46.2053C50.0809 46.2053 49.0896 45.0979 49.2853 43.8164C49.4164 42.9574 50.094 42.26 50.9495 42.108Z" fill="#F9F8F9"/>
<path d="M24.9048 46.205C24.372 46.205 23.8601 45.9966 23.5271 45.6461C23.2156 45.3183 22.705 45.2434 22.3512 45.5251C21.9656 45.832 21.9244 46.3953 22.2501 46.7547C22.9069 47.4796 23.8745 47.8952 24.9048 47.8952C26.1885 47.8952 27.2673 47.0717 27.4699 45.9371C27.6231 45.0787 27.2394 43.9595 25.7028 43.3927C25.0799 43.163 24.4943 42.9152 24.2215 42.7972C24.1059 42.7472 24.0336 42.6272 24.0507 42.5024C24.0508 42.5017 24.0509 42.5011 24.0509 42.5004C24.0625 42.42 24.1227 42.2229 24.4314 42.1298C25.189 41.9016 25.903 42.4611 25.9253 42.4789C26.2826 42.7745 26.812 42.7269 27.1108 42.3714C27.4111 42.0141 27.3649 41.481 27.0077 41.1808C26.9508 41.133 25.5944 40.0142 23.944 40.5116C23.0962 40.767 22.4961 41.437 22.3779 42.2603C22.2665 43.0355 22.6028 43.7815 23.2552 44.2068C23.3861 44.2892 24.1374 44.6068 25.1177 44.9785C25.2952 45.0439 25.8693 45.2851 25.8059 45.6401C25.7574 45.9117 25.3991 46.205 24.9048 46.205Z" fill="#F9F8F9"/>
<path d="M44.2408 46.2051C43.7081 46.2051 43.1961 45.9967 42.863 45.6462C42.5516 45.3184 42.0409 45.2435 41.6871 45.5252C41.3015 45.8321 41.2604 46.3954 41.586 46.7548C42.2428 47.4797 43.2105 47.8954 44.2407 47.8954C45.5245 47.8954 46.6031 47.0718 46.8057 45.9372C46.959 45.0789 46.5753 43.9596 45.0386 43.3929C44.4157 43.1631 43.8302 42.9153 43.5573 42.7973C43.4417 42.7473 43.3693 42.6273 43.3865 42.5025C43.3866 42.5018 43.3867 42.5012 43.3867 42.5006C43.3983 42.4202 43.4585 42.223 43.7672 42.13C44.5239 41.9017 45.2376 42.4602 45.2611 42.4789C45.6183 42.7746 46.1478 42.7271 46.4466 42.3714C46.7469 42.0142 46.7007 41.481 46.3434 41.1808C46.2865 41.133 44.9301 40.0142 43.2797 40.5116C42.4319 40.767 41.8317 41.437 41.7136 42.2603C41.6022 43.0355 41.9385 43.7815 42.591 44.2068C42.7218 44.2893 43.4733 44.6068 44.4535 44.9785C44.6309 45.0439 45.2049 45.2851 45.1416 45.64C45.0935 45.9118 44.7351 46.2051 44.2408 46.2051Z" fill="#F9F8F9"/>
<path d="M31.8736 46.0757C31.6998 46.1633 31.5124 46.2065 31.2933 46.2054C31.0595 46.2051 30.8569 46.1482 30.6742 46.0314C30.2387 45.7532 30.1511 45.5204 30.1511 45.235V41.265C30.1511 40.8023 29.7946 40.3988 29.3321 40.3849C28.8535 40.3705 28.4609 40.7543 28.4609 41.2297V45.235C28.4609 46.1562 28.8995 46.9033 29.7642 47.4557C30.0869 47.6606 30.661 47.8863 31.2952 47.8955C31.7746 47.8955 32.2248 47.791 32.6337 47.5851C33.641 47.0779 34.1958 46.2417 34.1958 45.2306V41.2649C34.1958 40.8022 33.8393 40.3987 33.3767 40.3848C32.8982 40.3704 32.5056 40.7542 32.5056 41.2295V45.2307C32.5057 45.4912 32.4306 45.7953 31.8736 46.0757Z" fill="#F9F8F9"/>
<path d="M59.8059 42.7414C59.8059 41.4413 58.7098 40.3836 57.3624 40.3836H55.8156C55.8153 40.3836 55.815 40.3836 55.8147 40.3836H55.8138C55.349 40.3595 54.9688 40.7206 54.9688 41.186V47.0141C54.9688 47.4769 55.3253 47.8804 55.7878 47.8943C56.2663 47.9087 56.6589 47.5249 56.6589 47.0495V45.7131L58.3266 47.6079C58.4935 47.7978 58.7268 47.8947 58.9613 47.8947C59.1632 47.8947 59.366 47.8227 59.528 47.6761C59.8749 47.3623 59.8822 46.8173 59.5731 46.4662L58.2334 44.944C59.1518 44.6045 59.8059 43.7456 59.8059 42.7414ZM57.3624 42.0738C57.7707 42.0738 58.1157 42.3795 58.1157 42.7414C58.1157 43.1033 57.7707 43.4091 57.3624 43.4091C57.197 43.4091 56.9313 43.4101 56.6667 43.4114C56.6651 43.1311 56.6647 42.6981 56.6632 42.0738H57.3624Z" fill="#F9F8F9"/>
</svg>
