<svg width="96" height="97" viewBox="0 0 96 97" fill="none" xmlns="http://www.w3.org/2000/svg">
<rect y="0.400024" width="96" height="96" rx="48" fill="white"/>
<path d="M66.1797 46.2711L69.2282 45.0537L75.7838 61.469L72.7352 62.6865L66.1797 46.2711Z" fill="#FF9F40"/>
<path d="M20.2422 61.4293L26.7977 45.014L29.8463 46.2314L23.2907 62.6468L20.2422 61.4293Z" fill="#FFBE40"/>
<path d="M69.3276 76.7998H26.6718V43.9877H69.3276V76.7998Z" fill="#FFDF40"/>
<path d="M48 43.9879H69.3279V76.8001H48V43.9879Z" fill="#FFBE40"/>
<path d="M46.3594 66.9567H49.6406V70.2379H46.3594V66.9567Z" fill="#665252"/>
<path d="M72.7188 40.4879H76V43.7691H72.7188V40.4879Z" fill="#D13465"/>
<path d="M26.6718 24.0816H29.953V27.3628H26.6718V24.0816Z" fill="#FF525F"/>
<path d="M49.6406 63.6753H46.3593V62.9928C46.3593 60.3925 47.3319 58.1174 49.0285 56.7524C49.4162 56.4383 49.6406 55.9705 49.6406 55.4722C49.6406 54.5671 48.9051 53.8316 47.9999 53.8316C47.0948 53.8316 46.3593 54.5671 46.3593 55.4722H43.0781C43.0781 52.7582 45.2859 50.5504 47.9999 50.5504C50.714 50.5504 52.9218 52.7582 52.9218 55.4722C52.9218 56.9687 52.2537 58.3657 51.0874 59.3062C50.1676 60.0464 49.6406 61.3906 49.6406 62.9928V63.6753Z" fill="#665252"/>
<path d="M49.6406 55.4722C49.6406 55.9705 49.4163 56.4383 49.0286 56.7524C48.6434 57.0622 48.3076 57.4317 48 57.8284V63.6753H49.6406V62.9928C49.6406 61.3907 50.1677 60.0465 51.0874 59.3062C52.2538 58.3657 52.9218 56.9687 52.9218 55.4722C52.9218 52.7582 50.714 50.5504 48 50.5504V53.8316C48.9052 53.8316 49.6406 54.5671 49.6406 55.4722Z" fill="#4D3636"/>
<path d="M38.1561 30.6441C35.4421 30.6441 33.2343 28.4362 33.2343 25.7222C33.2343 23.0082 35.4421 20.8004 38.1561 20.8004C40.8701 20.8004 43.0779 23.0082 43.0779 25.7222C43.0779 28.4362 40.8701 30.6441 38.1561 30.6441Z" fill="#E1E6F0"/>
<path d="M62.7655 24.0816H59.4843V20.8004H56.2031V24.0816H52.9219V27.3628H56.2031V30.6441H59.4843V27.3628H62.7655V24.0816Z" fill="#FFBE40"/>
<path d="M26.5624 30.644H23.2812V33.9253H20V37.2065H23.2812V40.4877H26.5624V37.2065H29.8436V33.9253H26.5624V30.644Z" fill="#FFDF40"/>
<path d="M46.3594 27.3629H49.6406V37.2066H46.3594V27.3629Z" fill="#E1E6F0"/>
<path d="M34.2734 34.7614L37.1154 33.1205L40.3965 38.8033L37.5545 40.4441L34.2734 34.7614Z" fill="#E1E6F0"/>
<path d="M72.6083 30.6442H64.4052C62.8402 30.6442 61.4446 31.3792 60.5425 32.5212L60.5393 32.5187L55.7344 38.6086L58.3107 40.6401L60.2441 38.1897C61.1169 39.5692 62.6552 40.4878 64.4052 40.4878C67.1192 40.4878 69.327 38.28 69.327 35.566C69.327 34.9908 69.227 34.4389 69.0449 33.9254H72.6083V30.6442Z" fill="#C3D0E6"/>
<path d="M48 66.9567H49.6406V70.2379H48V66.9567Z" fill="#4D3636"/>
<path d="M48 27.3629H49.6406V37.2066H48V27.3629Z" fill="#C3D0E6"/>
</svg>
