<svg width="16" height="16" viewBox="0 0 16 16" fill="none" xmlns="http://www.w3.org/2000/svg">
<path d="M8 1.33337C4.31999 1.33337 1.33333 4.32004 1.33333 8.00004C1.33333 11.68 4.31999 14.6667 8 14.6667C11.68 14.6667 14.6667 11.68 14.6667 8.00004C14.6667 4.32004 11.68 1.33337 8 1.33337ZM8 13.3334C5.06 13.3334 2.66666 10.94 2.66666 8.00004C2.66666 5.06004 5.06 2.66671 8 2.66671C10.94 2.66671 13.3333 5.06004 13.3333 8.00004C13.3333 10.94 10.94 13.3334 8 13.3334ZM11.06 5.05337L6.66666 9.44671L4.93999 7.72671L3.99999 8.66671L6.66666 11.3334L12 6.00004L11.06 5.05337Z" fill="#D0D5DD"/>
</svg>
